<svg xmlns="http://www.w3.org/2000/svg" viewBox="0 0 106.89 103.94"><defs><style>.cls-1{fill:none;stroke:#ed1c24;stroke-miterlimit:10;stroke-width:2px;}.cls-2{fill:#fff;}.cls-3{fill:#5fa2d0;fill-rule:evenodd;}</style></defs><g id="Capa_2" data-name="Capa 2"><g id="Capa_1-2" data-name="Capa 1"><rect class="cls-1" x="7.46" y="4.5" width="98.43" height="98.43" rx="9.8"/><rect class="cls-2" width="98.43" height="98.43" rx="9.8"/><path class="cls-3" d="M36.74,64.18A13.4,13.4,0,0,1,24.3,54.9,13.19,13.19,0,0,0,30,54.73a1.43,1.43,0,0,0,.19-.09,13.34,13.34,0,0,1-8.68-6.14,12.94,12.94,0,0,1-2-7.11,13,13,0,0,0,6,1.62A13.46,13.46,0,0,1,20,34.9a13.25,13.25,0,0,1,1.44-9.69A38.27,38.27,0,0,0,49,39.19c-.08-.53-.16-1-.21-1.46a13,13,0,0,1,2-8.75,12.84,12.84,0,0,1,9.07-6,13,13,0,0,1,11.71,3.72.66.66,0,0,0,.71.22,27.15,27.15,0,0,0,7.78-3l.18-.1h.09a13.69,13.69,0,0,1-5.73,7.27,25.7,25.7,0,0,0,7.45-2l0,.06c-.51.67-1,1.35-1.54,2a26,26,0,0,1-4.86,4.62.46.46,0,0,0-.22.42,35.8,35.8,0,0,1-.25,5.94A39.28,39.28,0,0,1,71.78,54a38.76,38.76,0,0,1-7.23,10.54A35.8,35.8,0,0,1,46.17,74.8a40.53,40.53,0,0,1-7.45.88,37.75,37.75,0,0,1-21.4-5.74L17,69.73a26.94,26.94,0,0,0,13.38-1.84A26.5,26.5,0,0,0,36.74,64.18Z"/></g></g></svg>