<svg xmlns="http://www.w3.org/2000/svg" viewBox="0 0 106.89 103.94"><defs><style>.cls-1{fill:none;stroke:#ed1c24;stroke-miterlimit:10;stroke-width:2px;}.cls-2{fill:#fff;}.cls-3{fill:#e31016;}</style></defs><g id="Capa_2" data-name="Capa 2"><g id="Capa_1-2" data-name="Capa 1"><rect class="cls-1" x="7.46" y="4.5" width="98.43" height="98.43" rx="9.8"/><rect class="cls-2" width="98.43" height="98.43" rx="9.8"/><path class="cls-3" d="M63.1,19H36a16.72,16.72,0,0,0-16.7,16.7v27.1A16.71,16.71,0,0,0,36,79.46H63.1A16.71,16.71,0,0,0,79.79,62.77V35.67A16.71,16.71,0,0,0,63.1,19Zm11.32,43.8A11.34,11.34,0,0,1,63.1,74.09H36A11.34,11.34,0,0,1,24.67,62.77V35.67A11.34,11.34,0,0,1,36,24.34H63.1A11.34,11.34,0,0,1,74.42,35.67Z"/><path class="cls-3" d="M49.55,33.63A15.59,15.59,0,1,0,65.13,49.22,15.6,15.6,0,0,0,49.55,33.63Zm0,25.8A10.22,10.22,0,1,1,59.77,49.22,10.22,10.22,0,0,1,49.55,59.43Z"/><path class="cls-3" d="M65.79,29.08a3.93,3.93,0,1,0,2.78,1.15,4,4,0,0,0-2.78-1.15Z"/></g></g></svg>