<svg xmlns="http://www.w3.org/2000/svg" viewBox="0 0 129.46 129.49"><defs><style>.cls-1{fill:#db131c;}</style></defs><g id="Capa_2" data-name="Capa 2"><g id="Capa_1-2" data-name="Capa 1"><path class="cls-1" d="M129.46,70a76,76,0,0,1-2.17,11.89,64.21,64.21,0,0,1-31.56,39.75,62.86,62.86,0,0,1-35.4,7.72,63.55,63.55,0,0,1-33.6-12.21c-1.49-1.07-1.71-2.29-.64-3.37.81-.82,1.67-.86,2.84,0a67.75,67.75,0,0,0,9.18,5.53,59.89,59.89,0,0,0,23.67,6A58.72,58.72,0,0,0,98,115.53c14.55-9.69,23.65-23.16,26.63-40.47,2.64-15.4-.11-29.87-8.61-43C106.42,17.25,92.92,7.93,75.53,5,55.15,1.48,37.21,7,22.29,21.34A57.65,57.65,0,0,0,4.47,58.05Q1.7,85.5,20.32,106c.34.37.69.74,1,1.14a1.88,1.88,0,0,1-.13,2.8,2,2,0,0,1-2.84-.09,56.87,56.87,0,0,1-6.17-7.33A62.17,62.17,0,0,1,.65,74C-1.91,54.47,3,37,16,22.06,26.47,10,39.73,2.93,55.49.5,56.73.3,58,.16,59.23,0H70.34A4.21,4.21,0,0,0,71,.16,61.73,61.73,0,0,1,95.86,7.79c15.91,9,26.46,22.21,31.46,39.81a76.86,76.86,0,0,1,2.14,11.77Z" transform="translate(0)"/><path class="cls-1" d="M48.53,29.69a23.67,23.67,0,0,1,15.25,4.89,1.37,1.37,0,0,0,2,0A24.25,24.25,0,0,1,104.45,50,23.55,23.55,0,0,1,100,68.17a1.57,1.57,0,0,0,0,2.26c3.89,5.29,1.58,11.11-4.88,12.38C94.31,83,94,83.2,93.83,84a7.43,7.43,0,0,1-6.42,6.52A1.59,1.59,0,0,0,85.91,92a7.46,7.46,0,0,1-6.3,6.38c-1,.2-1.42.53-1.56,1.55a7.52,7.52,0,0,1-12.39,4.6c-.57-.48-.89-.46-1.48,0a7.63,7.63,0,0,1-12.44-4.7c-.15-.79-.36-1.21-1.28-1.36a7.5,7.5,0,0,1-6.54-6.42,1.54,1.54,0,0,0-1.48-1.47,7.41,7.41,0,0,1-6.38-6.43,1.48,1.48,0,0,0-1.4-1.41c-6.2-1.22-8.52-7.41-4.66-12.45.54-.7.3-1.07-.1-1.61a24.18,24.18,0,0,1-5-14.82A23.84,23.84,0,0,1,43.59,30.26,20.79,20.79,0,0,1,48.53,29.69ZM29.19,52.9A25.22,25.22,0,0,0,33,65.81c.47.72.77.71,1.32.13.92-1,1.87-1.94,2.86-2.85A7.33,7.33,0,0,1,45,61.49a7.11,7.11,0,0,1,4.89,6.32c.09.81.37,1,1.15,1.11a7.5,7.5,0,0,1,6.67,6.55c.09,1,.45,1.2,1.36,1.32a7.48,7.48,0,0,1,6.5,6.71c.08.84.43,1,1.17,1.1,2.93.42,5.21,1.9,6.17,4.74a9.88,9.88,0,0,0,3,4.2,3.42,3.42,0,0,0,5-.39,3.32,3.32,0,0,0-.34-4.84q-6.11-6.14-12.23-12.25a2,2,0,1,1,2.84-2.86c1.24,1.2,2.45,2.44,3.67,3.66l8.4,8.39a3.37,3.37,0,0,0,3.74,1.13c2.75-1,3.48-3.85,1.43-5.91-3.88-3.92-7.79-7.81-11.69-11.71a7.45,7.45,0,0,1-.92-1,1.84,1.84,0,0,1,.25-2.52,1.89,1.89,0,0,1,2.53-.28,7.45,7.45,0,0,1,1,.92Q85.36,71.47,91,77.1a7.86,7.86,0,0,0,1.22,1.09A3.8,3.8,0,0,0,97,77.54a3,3,0,0,0,.22-4.14,15.06,15.06,0,0,0-2.33-2.65c-2-1.86-3.9-3.72-5.83-5.6C87.84,64,87.76,63,88.68,62.09s2-.93,3.19.21S94,64.36,95,65.4s1.21,1.18,2.17-.28a19.54,19.54,0,0,0,3.13-14.69C99,42.75,94.5,37.4,87.18,34.82S73.3,33.57,67.42,38.48C65.62,40,64,41.73,62.34,43.39q-4.08,4.05-8.13,8.13c-.91.92-1.7,1.92-1.38,3.34A3.81,3.81,0,0,0,55.5,57.8a3.12,3.12,0,0,0,3.41-1L70.79,44.9c1.24-1.23,2.25-1.34,3.42-.26,3.51,3.27,6.84,6.73,10.16,10.2a1.84,1.84,0,0,1-.1,2.89,1.92,1.92,0,0,1-2.91-.23c-2.58-2.54-5.17-5.07-7.66-7.7-.85-.88-1.31-.75-2.08,0-3.15,3.23-6.35,6.39-9.54,9.57A7.45,7.45,0,0,1,57.16,62a8.13,8.13,0,0,1-7.84-4.91c-1.27-2.89-.64-5.73,1.89-8.27Q56.05,43.9,61,39.06c.76-.74.67-1.13-.18-1.7a20.33,20.33,0,0,0-14.63-3.44C36.08,35.31,28.87,44.11,29.19,52.9Zm30.25,49.4a2.62,2.62,0,0,0,1.88-.63c2.59-2.4,5.13-4.86,7.47-7.5a3.15,3.15,0,0,0-.43-4.44,3.31,3.31,0,0,0-4.57-.31c-2.47,2.35-4.88,4.75-7.22,7.23a3.17,3.17,0,0,0-.42,3.77A3.32,3.32,0,0,0,59.44,102.3ZM35.82,78.76a3.31,3.31,0,0,0,2.45-1.11c2.2-2.19,4.42-4.37,6.59-6.6a3.42,3.42,0,0,0,0-4.86A3.33,3.33,0,0,0,40,66c-.82.72-1.56,1.53-2.34,2.3-1.51,1.52-3,3-4.51,4.57a3.53,3.53,0,0,0,2.69,5.87Zm21.9,2.07a2.73,2.73,0,0,0-2,.89C53.47,84,51.18,86.21,49,88.5a3.48,3.48,0,0,0,4.8,5c2.39-2.24,4.7-4.57,7-6.94A3,3,0,0,0,61.28,83,3.64,3.64,0,0,0,57.72,80.83Zm-14,5.77a2.79,2.79,0,0,0,2.08-.8c2.43-2.38,4.87-4.75,7.21-7.22A3.16,3.16,0,0,0,52.68,74,3.22,3.22,0,0,0,48,73.75c-2.43,2.32-4.79,4.72-7.13,7.13a3.1,3.1,0,0,0-.51,3.64A3.26,3.26,0,0,0,43.68,86.6Zm26.88,15.69a3.27,3.27,0,0,0,3.19-2,3.58,3.58,0,0,0-.55-3.76c-.49-.57-.79-.4-1.17.11a20.15,20.15,0,0,1-2.81,3c-.46.42-1.38.77-1.09,1.48s1.15.89,1.91,1A4.21,4.21,0,0,0,70.56,102.29Z" transform="translate(0)"/></g></g></svg>