<svg xmlns="http://www.w3.org/2000/svg" viewBox="0 0 144.24 146.39"><defs><style>.cls-1{fill:#04549c;}</style></defs><g id="Capa_2" data-name="Capa 2"><g id="Capa_1-2" data-name="Capa 1"><path class="cls-1" d="M63,0a15,15,0,0,1,6.08,4.1c3.2,3.19,6.47,6.32,9,10.12a2.06,2.06,0,0,0,1.39.88,63.53,63.53,0,0,1,15.64,5.28,1.88,1.88,0,0,0,2.11-.18q4.5-3,9-6c7.3-4.77,16.18-.48,16.94,8.2a9,9,0,0,1-.69,4.19c-.33.81-.09,1.15.7,1.47,5.72,2.36,8.27,7.77,6.38,13.59-.33,1,0,1.32.83,1.67a10.53,10.53,0,0,1,6.21,13.43c-.33,1-.25,1.36.78,1.76a10,10,0,0,1,6.72,8.35,10.29,10.29,0,0,1-4.52,10.42c-2,1.4-4,2.72-6.06,4a2,2,0,0,0-1.06,1.85,52.81,52.81,0,0,1-.88,8.5c-.27,1.74-1.47,2.78-2.86,2.52s-2.22-1.55-2-3.26.47-3.45.71-5.21a2.37,2.37,0,0,0-1.67.72c-7.31,4.82-14.63,9.63-21.9,14.51a15.64,15.64,0,0,1-11.6,2.85c-3.56-.58-6.47,1-9.21,3.06-.54.4-.32.77-.13,1.23,1.44,3.56.58,6.32-2.7,8.49Q64.64,127,49,137.33c-.47.31-.93.63-1.58,1.08a30.76,30.76,0,0,0,7,1.94c16,2.92,30.95.31,44.74-8.38a60.45,60.45,0,0,0,24.24-29.14c.25-.62.45-1.26.73-1.86a2.37,2.37,0,0,1,3.14-1.43,2.4,2.4,0,0,1,1.34,3.19A39.82,39.82,0,0,1,126.9,107C117,127.93,100.8,141,78,145.27c-27.91,5.19-55.34-7.92-69.39-32.54A64.44,64.44,0,0,1,.17,75.58,64.84,64.84,0,0,1,17.35,35.42a65.38,65.38,0,0,1,33.8-19.88c.8-.19,1.75-.15,1.08-1.57C49.51,8.25,51.87,2.55,57.78.29L58.43,0ZM94.57,99.09a10,10,0,0,0,6.29-2l12.5-8.27q11.53-7.64,23.07-15.3c3.1-2.07,3.87-5.46,2-8.3s-5.31-3.41-8.41-1.45c-1.28.81-2.53,1.68-3.81,2.51-1.63,1.06-3,.94-3.89-.3s-.43-2.64,1.17-3.71c2-1.36,4-2.67,6.06-4a5.83,5.83,0,1,0-6.25-9.84c-1.42.86-2.78,1.83-4.18,2.74-1.59,1-3,.86-3.87-.42s-.37-2.57,1.17-3.61c2-1.38,4.14-2.71,6.18-4.11a5.83,5.83,0,1,0-6.41-9.73c-1.37.86-2.7,1.78-4.06,2.65-1.61,1-3.1.89-3.9-.36s-.39-2.6,1.25-3.7l6.06-4a5.66,5.66,0,0,0,2.74-4.6A5.45,5.45,0,0,0,115.55,18a5.71,5.71,0,0,0-6.34.12c-3.72,2.4-7.4,4.87-11.09,7.31-4.2,2.78-8.39,5.59-12.61,8.34-2.05,1.34-3.45.83-4.34-1.46-.36-.93-.74-1.86-1-2.81C77.17,20,71.45,12.43,64,6a4.79,4.79,0,0,0-8,2.74c-.29,1.63.48,2.94,1.28,4.26a31.77,31.77,0,0,1,4.15,23.85C59.78,44.46,58,52,56.23,59.54c-.45,2-1.39,4-1.16,5.83s2,3.48,3.14,5.18q10.33,15.67,20.68,31.32c.69,1,1.21,1.23,2.24.47a19.72,19.72,0,0,1,4.45-2.52A17.31,17.31,0,0,1,94.57,99.09ZM78.68,111a3.34,3.34,0,0,0-.85-2L55.62,75.44c-2.42-3.65-4.83-7.3-7.27-10.93-1-1.44-1.59-1.65-2.79-.86-4.19,2.72-8.34,5.5-12.53,8.23-.69.45-.72.86-.25,1.49.65.88,1.27,1.78,1.83,2.72a2.41,2.41,0,1,1-4,2.73,22.73,22.73,0,0,1-1.75-2.6c-.54-1-1.06-.93-1.92-.36Q16.87,82.6,6.71,89.24a1.6,1.6,0,0,0-.84,1.86,59.18,59.18,0,0,0,6.45,18.21,61.26,61.26,0,0,0,27.94,26.42,2.37,2.37,0,0,0,2.63-.2c5.41-3.63,10.86-7.21,16.29-10.81,1.53-1,1.53-1,.49-2.56q-11.76-17.55-23.52-35.1c-1.08-1.61-1-3,.28-3.89s2.63-.45,3.72,1.15,2.17,3.24,3.25,4.86q10.26,15.3,20.51,30.59c.41.61.66,1.41,1.71.7,4-2.72,8.09-5.37,12.14-8A1.64,1.64,0,0,0,78.68,111ZM51.12,60.05C53,51.9,54.86,44,56.63,36.06a27.16,27.16,0,0,0-.49-13.69c-.82-2.82-.84-2.87-3.69-2.13Q17.42,29.42,7,64.12A53.88,53.88,0,0,0,5,82.74c.11,1.8.22,1.8,1.72.8C18.42,75.76,30.19,68,41.88,60.17,44.94,58.12,47.84,57.54,51.12,60.05ZM82,20.74l2.54,6.64c.19.49.43.91,1,.51q2.57-1.68,5.11-3.38c.42-.28.49-.59,0-.83A45.49,45.49,0,0,0,82,20.74Z"/></g></g></svg>